<?xml version="1.0" standalone="no"?><!DOCTYPE svg PUBLIC "-//W3C//DTD SVG 1.1//EN" "http://www.w3.org/Graphics/SVG/1.1/DTD/svg11.dtd"><svg class="icon" width="200px" height="200.00px" viewBox="0 0 1024 1024" version="1.1" xmlns="http://www.w3.org/2000/svg"><path d="M816 880H208A128 128 0 0 1 80 752a32 32 0 0 1 32-32h800a32 32 0 0 1 32 32 128 128 0 0 1-128 128z" fill="#FFFFFF" /><path d="M160 768h720a32 32 0 0 1 32 32 64 64 0 0 1-64 64H192a64 64 0 0 1-64-64 32 32 0 0 1 32-32z" fill="#8BF0AD" /><path d="M816 896H208c-79.4 0-144-64.6-144-144a48.05 48.05 0 0 1 48-48h800a48.05 48.05 0 0 1 48 48c0 79.4-64.6 144-144 144zM112 736a16 16 0 0 0-16 16 112.12 112.12 0 0 0 112 112h608a112.12 112.12 0 0 0 112-112 16 16 0 0 0-16-16z" fill="#333333" /><path d="M208 144h608a128 128 0 0 1 128 128v352a32 32 0 0 1-32 32H112a32 32 0 0 1-32-32V272a128 128 0 0 1 128-128z" fill="#FFFFFF" /><path d="M240 192h576a112 112 0 0 1 112 112v320a16 16 0 0 1-16 16H240a112 112 0 0 1-112-112V304a112 112 0 0 1 112-112z" fill="#82DAFA" /><path d="M912 672H112a48.05 48.05 0 0 1-48-48V272c0-79.4 64.6-144 144-144h608c79.4 0 144 64.6 144 144v352a48.05 48.05 0 0 1-48 48zM208 160A112.12 112.12 0 0 0 96 272v352a16 16 0 0 0 16 16h800a16 16 0 0 0 16-16V272a112.12 112.12 0 0 0-112-112z" fill="#333333" /><path d="M192 800m16 0l288 0q16 0 16 16l0 0q0 16-16 16l-288 0q-16 0-16-16l0 0q0-16 16-16Z" fill="#333333" /><path d="M576 800m16 0l32 0q16 0 16 16l0 0q0 16-16 16l-32 0q-16 0-16-16l0 0q0-16 16-16Z" fill="#333333" /><path d="M656 424.89a71 71 0 0 0-80.06-70.53c0-0.79 0.06-1.57 0.06-2.36a64 64 0 0 0-128 0c0 0.79 0 1.57 0.06 2.36A71.11 71.11 0 1 0 432 495.65h160a71.13 71.13 0 0 0 64-70.76z" fill="#FFFFFF" /><path d="M640 425.25c0-30.2-16-57.25-63.23-56 0-27.18-22.64-49.21-50.58-49.21s-50.58 22-50.58 49.21c0 0.6 0 1.21 0.05 1.81a59 59 0 0 0-7.07-0.45c-31 0-56.21 24.48-56.21 54.68 0 28.34 22.18 51.65 50.58 54.4h126.46c28.4-2.79 50.58-26.1 50.58-54.44z" fill="#C4F08B" /><path d="M592 511.65H432c-0.53 0-1.06 0-1.58-0.08A87.12 87.12 0 0 1 433.23 338a80 80 0 0 1 157.54 0 87.12 87.12 0 0 1 2.81 173.6c-0.52 0.02-1.05 0.05-1.58 0.05z m-159.16-32h158.32a55.11 55.11 0 0 0-6.27-109.87 56.34 56.34 0 0 0-6.95 0.45 16 16 0 0 1-18-16.45v-0.21V352a48 48 0 0 0-96 0v1.78a16 16 0 0 1-18 16.45 56.34 56.34 0 0 0-6.95-0.45 55.11 55.11 0 0 0-6.27 109.87z" fill="#333333" /></svg>