<?xml version="1.0" standalone="no"?><!DOCTYPE svg PUBLIC "-//W3C//DTD SVG 1.1//EN" "http://www.w3.org/Graphics/SVG/1.1/DTD/svg11.dtd"><svg class="icon" width="200px" height="200.00px" viewBox="0 0 1024 1024" version="1.1" xmlns="http://www.w3.org/2000/svg"><path d="M80 144m128 0l608 0q128 0 128 128l0 352q0 128-128 128l-608 0q-128 0-128-128l0-352q0-128 128-128Z" fill="#FFFFFF" /><path d="M128 192m112 0l576 0q112 0 112 112l0 320q0 112-112 112l-576 0q-112 0-112-112l0-320q0-112 112-112Z" fill="#A89BFA" /><path d="M816 768H208c-79.4 0-144-64.6-144-144V272c0-79.4 64.6-144 144-144h608c79.4 0 144 64.6 144 144v352c0 79.4-64.6 144-144 144zM208 160A112.12 112.12 0 0 0 96 272v352a112.12 112.12 0 0 0 112 112h608a112.12 112.12 0 0 0 112-112V272a112.12 112.12 0 0 0-112-112z" fill="#333333" /><path d="M554.81 857.47L672 752H352l117.19 105.47a64 64 0 0 0 85.62 0z" fill="#FFFFFF" /><path d="M533.24 855.08L595 800h-95.44a16 16 0 0 0-12.2 26.35l23 27.14a16 16 0 0 0 22.88 1.59z" fill="#FF9580" /><path d="M512 890a79.81 79.81 0 0 1-53.52-20.59L341.3 763.89A16 16 0 0 1 352 736h320a16 16 0 0 1 10.7 27.89L565.52 869.36A79.81 79.81 0 0 1 512 890zM393.7 768l86.19 77.58a47.91 47.91 0 0 0 64.22 0L630.3 768z" fill="#333333" /><path d="M272 352m32 0l240 0q32 0 32 32l0 0q0 32-32 32l-240 0q-32 0-32-32l0 0q0-32 32-32Z" fill="#333333" /><path d="M272 512m32 0l112 0q32 0 32 32l0 0q0 32-32 32l-112 0q-32 0-32-32l0 0q0-32 32-32Z" fill="#333333" /></svg>