<?xml version="1.0" standalone="no"?><!DOCTYPE svg PUBLIC "-//W3C//DTD SVG 1.1//EN" "http://www.w3.org/Graphics/SVG/1.1/DTD/svg11.dtd"><svg class="icon" width="200px" height="200.00px" viewBox="0 0 1024 1024" version="1.1" xmlns="http://www.w3.org/2000/svg"><path d="M80 144m128 0l608 0q128 0 128 128l0 480q0 128-128 128l-608 0q-128 0-128-128l0-480q0-128 128-128Z" fill="#FFFFFF" /><path d="M128 193m112 0l576 0q112 0 112 112l0 447q0 112-112 112l-576 0q-112 0-112-112l0-447q0-112 112-112Z" fill="#A89BFA" /><path d="M816 896H208c-79.4 0-144-64.6-144-144V272c0-79.4 64.6-144 144-144h608c79.4 0 144 64.6 144 144v480c0 79.4-64.6 144-144 144zM208 160A112.12 112.12 0 0 0 96 272v480a112.12 112.12 0 0 0 112 112h608a112.12 112.12 0 0 0 112-112V272a112.12 112.12 0 0 0-112-112z" fill="#333333" /><path d="M720.12 654.64l-66.07-102.31a32 32 0 0 0-53.25-0.76L559 612.35l-109.5-182.5a32 32 0 0 0-54.92 0.07L259.89 655.6c-12.73 21.33 2.64 48.4 27.48 48.4h405.87c25.35 0 40.63-28.07 26.88-49.36z" fill="#FFFFFF" /><path d="M683.8 662.4L641.46 606a16 16 0 0 0-26 0.62l-42 62a16 16 0 0 1-26.56-0.1L443.17 512.8a23.47 23.47 0 0 0-40 1.46L324.79 653a23.47 23.47 0 0 0 20.43 35H671a16 16 0 0 0 12.8-25.6z" fill="#FF9580" /><path d="M693.24 720H288.15a48.77 48.77 0 0 1-42.65-24.52 47.46 47.46 0 0 1 0.65-48.08l134.71-225.68a47.59 47.59 0 0 1 41.14-23.4h0.05a47.6 47.6 0 0 1 41.16 23.3l90.29 150.49a8 8 0 0 0 13.45 0.41l20.64-30a48 48 0 0 1 79.88 1.15L733.56 646a48 48 0 0 1-40.32 74zM422.07 430.32a15.75 15.75 0 0 0-13.72 7.8L273.63 663.8a16 16 0 0 0 13.74 24.2h405.87a16 16 0 0 0 13.44-24.68L640.61 561a16 16 0 0 0-26.63-0.38l-48.84 71a8 8 0 0 1-13.45-0.42l-115.9-193.12a15.74 15.74 0 0 0-13.72-7.76z" fill="#333333" /><path d="M704 384m-64 0a64 64 0 1 0 128 0 64 64 0 1 0-128 0Z" fill="#333333" /></svg>