<?xml version="1.0" standalone="no"?><!DOCTYPE svg PUBLIC "-//W3C//DTD SVG 1.1//EN" "http://www.w3.org/Graphics/SVG/1.1/DTD/svg11.dtd"><svg class="icon" width="200px" height="200.00px" viewBox="0 0 1024 1024" version="1.1" xmlns="http://www.w3.org/2000/svg"><path d="M512 832m-112 0a112 112 0 1 0 224 0 112 112 0 1 0-224 0Z" fill="#FFFFFF" /><path d="M528 848m-80 0a80 80 0 1 0 160 0 80 80 0 1 0-160 0Z" fill="#82DAFA" /><path d="M512 960a128 128 0 1 1 128-128 128.14 128.14 0 0 1-128 128z m0-224a96 96 0 1 0 96 96 96.11 96.11 0 0 0-96-96z" fill="#333333" /><path d="M512 80a304 304 0 0 1 304 304v272H208V384A304 304 0 0 1 512 80z" fill="#FFFFFF" /><path d="M528 128a272 272 0 0 1 272 272v240H320a64 64 0 0 1-64-64V400a272 272 0 0 1 272-272z" fill="#FF8591" /><path d="M832 672H192V384a320 320 0 0 1 640 0z m-608-32h576V384c0-158.8-129.2-288-288-288S224 225.2 224 384z" fill="#333333" /><path d="M80 656m96 0l672 0q96 0 96 96l0 0q0 96-96 96l-672 0q-96 0-96-96l0 0q0-96 96-96Z" fill="#FFFFFF" /><path d="M128 704m64 0l672 0q64 0 64 64l0 0q0 64-64 64l-672 0q-64 0-64-64l0 0q0-64 64-64Z" fill="#FFBF80" /><path d="M848 864H176a112 112 0 0 1 0-224h672a112 112 0 0 1 0 224zM176 672a80 80 0 0 0 0 160h672a80 80 0 0 0 0-160z" fill="#333333" /></svg>