<?xml version="1.0" standalone="no"?><!DOCTYPE svg PUBLIC "-//W3C//DTD SVG 1.1//EN" "http://www.w3.org/Graphics/SVG/1.1/DTD/svg11.dtd"><svg class="icon" width="200px" height="200.00px" viewBox="0 0 1024 1024" version="1.1" xmlns="http://www.w3.org/2000/svg"><path d="M800.84 715.71l32-55.42a64 64 0 0 1 77.52-28.06 418.55 418.55 0 0 0 0-240.46 64 64 0 0 1-77.52-28.06l-32-55.42a64 64 0 0 1 14.38-81.09 415.56 415.56 0 0 0-208.17-120.28A64 64 0 0 1 544 160h-64a64 64 0 0 1-63-53.08A415.56 415.56 0 0 0 208.78 227.2a64 64 0 0 1 14.38 81.09l-32 55.42a64 64 0 0 1-77.52 28.06 418.55 418.55 0 0 0 0 240.46 64 64 0 0 1 77.52 28.06l32 55.42a64 64 0 0 1-14.38 81.09A415.56 415.56 0 0 0 417 917.08 64 64 0 0 1 480 864h64a64 64 0 0 1 63 53.08A415.56 415.56 0 0 0 815.22 796.8a64 64 0 0 1-14.38-81.09z" fill="#FFFFFF" /><path d="M800.84 715.71l32-55.42a64 64 0 0 1 77.52-28.06 418.55 418.55 0 0 0 0-240.46 64 64 0 0 1-77.52-28.06l-32-55.42c-14.29-24.76-29.61-47.53-20.53-75.36a16 16 0 0 0-4.49-16.74c-30-27.27-72.34-51.89-139.63-69.2a15.94 15.94 0 0 0-17.77 7.46C604 179.48 588 192 560 192H448c-16 0-32-16-46.38-32.12-5.89-6.6-10.52-14.48-19.07-12.21-41.4 11-83.94 37.49-115.36 65.73a15.85 15.85 0 0 0-3 20c12.71 20.64 4.53 51.44-9 74.89l-32 55.42c-13.84 24-42.09 54.14-68.17 54.21a15.89 15.89 0 0 0-15 11.57c-8.52 29.07-12 46-12 82.51 0 36.06 3.37 53 11.66 81.44a16 16 0 0 0 17.14 11.43c21.9-2.41 37.86 12 51.2 35.13l48 80c13.35 23.13 10 48-5.5 67a15.94 15.94 0 0 0 0.85 21c49.93 52.88 89.78 91.33 165.6 109.05A64 64 0 0 1 480 864h64a64 64 0 0 1 63 53.08A415.56 415.56 0 0 0 815.22 796.8a64 64 0 0 1-14.38-81.09z" fill="#82AAFA" /><path d="M618.08 110.23a16.38 16.38 0 0 1 4.31 0.58 415.66 415.66 0 0 1 181.8 105.09 16 16 0 0 1 1.5 21.17 64 64 0 0 0-4.85 71.22l32 55.42a64 64 0 0 0 64.33 31.38 15.5 15.5 0 0 1 2.14-0.15A16 16 0 0 1 914.63 407a419 419 0 0 1 0 210 16 16 0 0 1-15.32 12.06 15.5 15.5 0 0 1-2.14-0.15 64 64 0 0 0-64.33 31.38l-32 55.42a64 64 0 0 0 4.85 71.22 16 16 0 0 1-1.5 21.17 415.66 415.66 0 0 1-181.8 105.09 16.38 16.38 0 0 1-4.31 0.58 15.91 15.91 0 0 1-14.79-9.87A64 64 0 0 0 544 864h-64a64 64 0 0 0-59.29 39.9 15.91 15.91 0 0 1-14.79 9.87 16.38 16.38 0 0 1-4.31-0.58 415.66 415.66 0 0 1-181.8-105.09 16 16 0 0 1-1.5-21.17 64 64 0 0 0 4.85-71.22l-32-55.42a64 64 0 0 0-64.33-31.38 15.5 15.5 0 0 1-2.14 0.15A16 16 0 0 1 109.37 617a419 419 0 0 1 0-210 16 16 0 0 1 15.32-12.06 15.5 15.5 0 0 1 2.14 0.15 64 64 0 0 0 64.33-31.38l32-55.42a64 64 0 0 0-4.85-71.22 16 16 0 0 1 1.5-21.17 415.66 415.66 0 0 1 181.8-105.09 16.38 16.38 0 0 1 4.31-0.58 15.91 15.91 0 0 1 14.79 9.87A64 64 0 0 0 480 160h64a64 64 0 0 0 59.29-39.9 15.91 15.91 0 0 1 14.79-9.87m0-32a47.73 47.73 0 0 0-44.43 29.82A31.9 31.9 0 0 1 544 128h-64a31.9 31.9 0 0 1-29.65-20 47.72 47.72 0 0 0-44.43-29.82A48.48 48.48 0 0 0 393.14 80a448.6 448.6 0 0 0-195.81 113.12 48 48 0 0 0-4.33 63.55 31.89 31.89 0 0 1 2.44 35.62l-32 55.42a32.12 32.12 0 0 1-27.76 16 32.46 32.46 0 0 1-4.41-0.31A47.73 47.73 0 0 0 78.4 399a451 451 0 0 0 0 226.1 48 48 0 0 0 46.29 36 48.55 48.55 0 0 0 6.59-0.46 32.46 32.46 0 0 1 4.41-0.31 32.12 32.12 0 0 1 27.76 16l32 55.42a31.91 31.91 0 0 1-2.45 35.58 48 48 0 0 0 4.31 63.55 448.6 448.6 0 0 0 195.83 113.17 48.48 48.48 0 0 0 12.78 1.72A47.72 47.72 0 0 0 450.35 916 31.9 31.9 0 0 1 480 896h64a31.9 31.9 0 0 1 29.65 20 47.72 47.72 0 0 0 44.43 29.82 48.48 48.48 0 0 0 12.78-1.72 448.6 448.6 0 0 0 195.81-113.22 48 48 0 0 0 4.33-63.55 31.91 31.91 0 0 1-2.43-35.62l32-55.42a32.12 32.12 0 0 1 27.76-16 32.46 32.46 0 0 1 4.41 0.31 47 47 0 0 0 6.59 0.46 48 48 0 0 0 46.29-36 451 451 0 0 0 0-226.1 48 48 0 0 0-46.29-36 48.55 48.55 0 0 0-6.59 0.46 32.46 32.46 0 0 1-4.41 0.31 32.12 32.12 0 0 1-27.76-16l-32-55.42a31.91 31.91 0 0 1 2.43-35.64 48 48 0 0 0-4.31-63.55A448.6 448.6 0 0 0 630.86 80a48.35 48.35 0 0 0-12.77-1.72z" fill="#333333" /><path d="M512 512m-160 0a160 160 0 1 0 320 0 160 160 0 1 0-320 0Z" fill="#FFFFFF" /><path d="M528 528m-144 0a144 144 0 1 0 288 0 144 144 0 1 0-288 0Z" fill="#C4F08B" /><path d="M512 352a160 160 0 1 1-160 160 160 160 0 0 1 160-160m0-32a191.46 191.46 0 1 0 74.74 15.1A190.79 190.79 0 0 0 512 320z" fill="#333333" /></svg>