<?xml version="1.0" standalone="no"?><!DOCTYPE svg PUBLIC "-//W3C//DTD SVG 1.1//EN" "http://www.w3.org/Graphics/SVG/1.1/DTD/svg11.dtd"><svg class="icon" width="200px" height="200.00px" viewBox="0 0 1024 1024" version="1.1" xmlns="http://www.w3.org/2000/svg"><path d="M512 448m-368 0a368 368 0 1 0 736 0 368 368 0 1 0-736 0Z" fill="#FFFFFF" /><path d="M528 464m-336 0a336 336 0 1 0 672 0 336 336 0 1 0-672 0Z" fill="#FFE07A" /><path d="M512 832a382.8 382.8 0 1 1 149.48-30.18A381.82 381.82 0 0 1 512 832z m0-736c-194.09 0-352 157.91-352 352s157.91 352 352 352 352-157.91 352-352S706.09 96 512 96z" fill="#333333" /><path d="M148.59 716.51l-68.67 81.84L192.47 843l59.05 99.33 74.69-89a465.66 465.66 0 0 1-177.62-136.82z" fill="#FFFFFF" /><path d="M128.51 802.73l64 40.27L249 928s14.11-19.4 26.55-37a16 16 0 0 0-5.35-23.24 477.35 477.35 0 0 1-113.46-86 16 16 0 0 0-24.15 1.38c-2.2 2.85-4.32 5.57-6.13 7.89a8 8 0 0 0 2.05 11.7z" fill="#FFBF80" /><path d="M251.52 958.33c-0.43 0-0.86 0-1.3-0.05a16 16 0 0 1-12.46-7.77l-56.26-94.65L74 813.22a16 16 0 0 1-6.35-25.16l68.66-81.83a16 16 0 0 1 24.79 0.32 450.82 450.82 0 0 0 171.51 132.1 16 16 0 0 1 5.84 24.94l-74.7 89a16 16 0 0 1-12.23 5.74zM106.43 791.65l91.94 36.48a16 16 0 0 1 7.85 6.69l47.53 80L300.54 859a483.47 483.47 0 0 1-152-117.53z" fill="#333333" /><path d="M875.43 716.51l68.67 81.84L831.55 843l-59 99.33-74.7-89a465.61 465.61 0 0 0 177.58-136.82z" fill="#FFFFFF" /><path d="M895.51 802.73l-64 40.27L775 928s-14.11-19.4-26.55-37a16 16 0 0 1 5.35-23.24 477.35 477.35 0 0 0 113.46-86 16 16 0 0 1 24.15 1.38c2.2 2.85 4.32 5.57 6.13 7.89a8 8 0 0 1-2.03 11.7z" fill="#FFBF80" /><path d="M772.5 958.33c0.43 0 0.86 0 1.29-0.05a16 16 0 0 0 12.46-7.77l56.27-94.65L950 813.22a16 16 0 0 0 6.35-25.16l-68.67-81.83a16 16 0 0 0-24.78 0.32 450.82 450.82 0 0 1-171.51 132.1 16 16 0 0 0-5.84 24.94l74.69 89a16 16 0 0 0 12.26 5.74z m145.09-166.68l-91.94 36.48a16 16 0 0 0-7.85 6.69l-47.53 80L723.48 859a483.47 483.47 0 0 0 152-117.53z" fill="#333333" /><path d="M512 448m-224 0a224 224 0 1 0 448 0 224 224 0 1 0-448 0Z" fill="#FFFFFF" /><path d="M528 464m-192 0a192 192 0 1 0 384 0 192 192 0 1 0-384 0Z" fill="#FF8591" /><path d="M512 688a240 240 0 1 1 169.71-70.29A238.43 238.43 0 0 1 512 688z m0-448c-114.69 0-208 93.31-208 208s93.31 208 208 208 208-93.31 208-208-93.31-208-208-208z" fill="#333333" /></svg>