<?xml version="1.0" standalone="no"?><!DOCTYPE svg PUBLIC "-//W3C//DTD SVG 1.1//EN" "http://www.w3.org/Graphics/SVG/1.1/DTD/svg11.dtd"><svg t="1658456471852" class="icon" viewBox="0 0 1046 1024" version="1.1" xmlns="http://www.w3.org/2000/svg" p-id="2360" xmlns:xlink="http://www.w3.org/1999/xlink" width="204.296875" height="200"><defs><style type="text/css">@font-face { font-family: feedback-iconfont; src: url("//at.alicdn.com/t/font_1031158_u69w8yhxdu.woff2?t=1630033759944") format("woff2"), url("//at.alicdn.com/t/font_1031158_u69w8yhxdu.woff?t=1630033759944") format("woff"), url("//at.alicdn.com/t/font_1031158_u69w8yhxdu.ttf?t=1630033759944") format("truetype"); }
</style></defs><path d="M242.083293 64.994396a374.895822 374.895822 0 0 0 282.633766 132.220623 374.895822 374.895822 0 0 0 280.684567-129.946558l172.828923 188.747376a15.593587 15.593587 0 0 1 0 19.81685l-114.677838 138.068219h-32.48664a32.48664 32.48664 0 0 0-32.486639 32.48664v503.542915a15.918453 15.918453 0 0 1-2.598932 9.421126H241.43356a15.918453 15.918453 0 0 1-2.598931-9.421126V449.961076a32.48664 32.48664 0 0 0-29.887708-32.486639l-27.93851-2.274065L65.031107 277.132153c-3.248664-4.223263 0-19.167117 17.542785-38.334235L242.083293 64.994396m0-64.97328A61.399749 61.399749 0 0 0 194.977666 20.487699L35.793131 194.940955C-7.4141 241.721716-8.388699 288.827343 16.301147 318.390185L130.004386 457.433003a61.399749 61.399749 0 0 0 42.557498 22.740648v469.431944a70.171142 70.171142 0 0 0 64.97328 74.394405H799.229164a70.171142 70.171142 0 0 0 64.97328-74.394405V480.173651h2.923797a60.750016 60.750016 0 0 0 47.105628-22.740648l115.002704-139.042818a82.516065 82.516065 0 0 0-2.598931-104.931846L852.507253 23.086631a61.724615 61.724615 0 0 0-46.131028-20.466584 64.973279 64.973279 0 0 0-49.379692 22.740648 311.546875 311.546875 0 0 1-232.279474 108.180511A311.871741 311.871741 0 0 1 292.437585 23.086631 64.973279 64.973279 0 0 0 241.108694 0.021116z" fill="" p-id="2361"></path></svg>